<svg version="1.1" id="Layer_1" xmlns="http://www.w3.org/2000/svg" xmlns:xlink="http://www.w3.org/1999/xlink" x="0px" y="0px"
	 width="100%" viewBox="0 0 256 256" enable-background="new 0 0 256 256" xml:space="preserve">
<path fill="#66FFE3" opacity="1.000000" stroke="none" 
	d="
M81.000000,257.000000 
	C70.645775,257.000000 60.291546,257.000000 49.468658,256.532440 
	C49.000000,251.136337 49.000000,246.207794 49.000000,240.868073 
	C43.396645,240.868073 38.328030,240.868073 32.853134,240.868073 
	C32.853134,235.381836 32.853134,230.313202 32.853134,224.838257 
	C27.365356,224.838257 22.296663,224.838257 16.823668,224.838257 
	C16.823668,219.349396 16.823668,214.282181 16.823668,209.000000 
	C11.264147,209.000000 6.132073,209.000000 1.000000,209.000000 
	C1.000000,155.979111 1.000000,102.958214 1.467552,49.468658 
	C6.863647,49.000000 11.792191,49.000000 17.131926,49.000000 
	C17.131926,43.396637 17.131926,38.328026 17.131926,32.853134 
	C22.618172,32.853134 27.686804,32.853134 33.161751,32.853134 
	C33.161751,27.365355 33.161751,22.296661 33.161751,16.823666 
	C38.650604,16.823666 43.717819,16.823666 49.000000,16.823666 
	C49.000000,11.264147 49.000000,6.132073 49.000000,1.000000 
	C102.020897,1.000000 155.041794,1.000000 208.531342,1.468657 
	C208.980637,12.310895 208.961273,22.684475 208.970963,33.029030 
	C209.000000,33.000000 209.058075,32.941944 208.586319,32.967270 
	C197.852234,32.992596 187.589905,32.992596 176.861603,32.992596 
	C176.861603,27.391626 176.861603,22.321302 176.861603,17.166193 
	C165.927048,17.166193 155.467087,17.166193 144.542816,17.095150 
	C123.157692,17.024109 102.236893,17.024109 80.836594,17.024109 
	C80.836594,22.727413 80.836594,27.859812 80.381073,32.994217 
	C74.947769,33.051952 69.969986,33.107681 64.529831,33.093590 
	C59.141010,33.023773 54.214577,33.023773 49.015995,33.023773 
	C49.015995,38.749512 49.015995,43.882923 48.547523,49.009354 
	C43.148392,49.002373 38.217735,49.002373 33.163082,49.002373 
	C33.163082,76.073067 33.163082,102.525093 33.097610,129.440735 
	C33.076824,134.937195 33.121513,139.970047 33.096806,145.467407 
	C33.027412,161.507629 33.027412,177.083344 33.027412,193.010681 
	C38.730709,193.010681 43.859978,193.010681 48.993752,193.477386 
	C48.998257,198.859360 48.998257,203.774628 48.998257,209.010757 
	C54.747211,209.010757 59.868271,209.010757 64.993790,209.477570 
	C64.998253,214.853226 64.998253,219.762085 64.998253,225.001862 
	C76.018127,225.001862 86.427513,225.001862 96.903732,225.465500 
	C96.965485,230.967651 96.960396,236.006180 96.977654,241.022339 
	C97.000000,241.000000 97.044693,240.955307 96.574677,240.973572 
	C91.182892,240.991821 86.261116,240.991821 81.000000,240.991821 
	C81.000000,246.752579 81.000000,251.876297 81.000000,257.000000 
z"/>
<path fill="#FFE684" opacity="1.000000" stroke="none" 
	d="
M257.000000,81.000000 
	C257.000000,107.354225 257.000000,133.708450 256.532532,160.531342 
	C251.164230,161.000000 246.263351,161.000000 240.912994,161.000000 
	C240.912994,166.637390 240.912994,171.545135 240.912994,177.071991 
	C235.440536,177.071991 230.408981,177.071991 224.841202,177.071991 
	C224.841202,182.814255 224.841202,187.921158 224.383575,193.020264 
	C208.391068,193.012482 192.856186,193.012482 177.349396,193.012482 
	C177.172150,191.224380 177.057358,190.405075 177.015076,189.582062 
	C176.812393,185.636047 178.087021,180.286667 176.023819,178.142075 
	C174.014420,176.053391 168.596069,177.056534 164.674561,177.057907 
	C161.826904,177.058884 160.892242,175.968002 160.963150,173.220993 
	C161.100403,167.904739 161.000397,162.582382 161.000168,157.262558 
	C160.999634,145.315216 161.000000,145.315170 172.648148,144.998779 
	C172.814285,144.994263 172.983047,144.978317 173.146500,144.999390 
	C176.320541,145.408417 177.156418,143.790054 177.038528,140.900665 
	C176.876007,136.917496 177.000504,132.922607 177.002258,128.967606 
	C177.002472,129.002472 176.932739,129.002045 177.404739,129.001221 
	C181.497986,128.999573 185.128067,128.841858 188.737793,129.045334 
	C191.885803,129.222778 193.237396,128.200958 193.051819,124.881218 
	C192.831741,120.943779 193.019653,116.983536 193.495911,113.022194 
	C197.749786,113.005867 201.543198,112.882751 205.325607,113.034126 
	C208.124344,113.146126 209.132812,112.028488 209.034256,109.278877 
	C208.886810,105.166008 208.995880,101.043945 208.996155,96.961143 
	C208.996490,96.996498 208.925781,96.995827 209.397736,96.996964 
	C214.919083,96.965508 219.968460,96.932922 225.482849,96.937576 
	C230.864975,96.974815 235.782120,96.974815 241.158310,96.974815 
	C241.158310,91.294624 241.158310,86.373726 241.158310,81.000000 
	C246.755981,81.000000 251.877991,81.000000 257.000000,81.000000 
z"/>
<path fill="#66FFE3" opacity="1.000000" stroke="none" 
	d="
M224.841202,193.028046 
	C224.841202,187.921158 224.841202,182.814255 224.841202,177.071991 
	C230.408981,177.071991 235.440536,177.071991 240.912994,177.071991 
	C240.912994,171.545135 240.912994,166.637390 240.912994,161.000000 
	C246.263351,161.000000 251.164230,161.000000 256.532532,161.000000 
	C257.000000,176.687561 257.000000,192.375122 256.532440,208.531342 
	C251.136337,209.000000 246.207794,209.000000 240.868073,209.000000 
	C240.868073,214.603363 240.868073,219.671967 240.868073,225.146866 
	C235.381027,225.146866 230.311707,225.146866 224.838257,225.146866 
	C224.838257,230.634644 224.838257,235.703339 224.838257,241.176331 
	C219.349396,241.176331 214.282181,241.176331 209.000000,241.176331 
	C209.000000,246.735107 209.000000,251.867554 209.000000,257.000000 
	C198.645767,257.000000 188.291550,257.000000 177.468658,256.533722 
	C177.000763,251.099670 177.001511,246.131912 177.466522,241.095520 
	C182.850784,241.026901 187.770782,241.026901 193.195999,241.026901 
	C193.195999,235.322571 193.195999,230.271729 193.195999,224.719666 
	C198.764709,224.719666 203.821030,224.719666 209.188416,224.719666 
	C209.188416,219.270920 209.188416,214.339859 209.188416,208.903809 
	C214.572937,208.903809 219.630814,208.903809 224.841202,208.903809 
	C224.841202,203.267761 224.841202,198.147903 224.841202,193.028046 
z"/>
<path fill="#66FFE3" opacity="1.000000" stroke="none" 
	d="
M257.000000,80.531342 
	C251.877991,81.000000 246.755981,81.000000 241.158310,81.000000 
	C241.158310,86.373726 241.158310,91.294624 241.158310,96.974815 
	C235.782120,96.974815 230.864975,96.974815 225.475571,96.479004 
	C225.003296,85.783722 225.003296,75.584251 225.003296,64.999977 
	C219.354156,64.999977 214.260406,64.999977 209.093948,64.536331 
	C209.033524,53.695770 209.045792,43.318859 209.058075,32.941944 
	C209.058075,32.941944 209.000000,33.000000 209.442719,33.003700 
	C220.201721,33.005287 230.518005,33.003170 240.908661,33.463287 
	C240.983017,38.930321 240.983017,43.935120 240.983017,49.000000 
	C246.832382,49.000000 251.916199,49.000000 257.000000,49.000000 
	C257.000000,59.354229 257.000000,69.708458 257.000000,80.531342 
z"/>
<path fill="#000000" opacity="1.000000" stroke="none" 
	d="
M48.531342,1.000000 
	C49.000000,6.132073 49.000000,11.264147 49.000000,16.823666 
	C43.717819,16.823666 38.650604,16.823666 33.161751,16.823666 
	C33.161751,22.296661 33.161751,27.365355 33.161751,32.853134 
	C27.686804,32.853134 22.618172,32.853134 17.131926,32.853134 
	C17.131926,38.328026 17.131926,43.396637 17.131926,49.000000 
	C11.792191,49.000000 6.863647,49.000000 1.467552,49.000000 
	C1.000000,33.073269 1.000000,17.146536 1.000000,1.000000 
	C16.686876,1.000000 32.374779,1.000000 48.531342,1.000000 
z"/>
<path fill="#000000" opacity="1.000000" stroke="none" 
	d="
M1.000000,209.468658 
	C6.132073,209.000000 11.264147,209.000000 16.823668,209.000000 
	C16.823668,214.282181 16.823668,219.349396 16.823668,224.838257 
	C22.296663,224.838257 27.365356,224.838257 32.853134,224.838257 
	C32.853134,230.313202 32.853134,235.381836 32.853134,240.868073 
	C38.328030,240.868073 43.396645,240.868073 49.000000,240.868073 
	C49.000000,246.207794 49.000000,251.136337 49.000000,256.532440 
	C33.073269,257.000000 17.146536,257.000000 1.000000,257.000000 
	C1.000000,241.313126 1.000000,225.625214 1.000000,209.468658 
z"/>
<path fill="#000000" opacity="1.000000" stroke="none" 
	d="
M209.468658,257.000000 
	C209.000000,251.867554 209.000000,246.735107 209.000000,241.176331 
	C214.282181,241.176331 219.349396,241.176331 224.838257,241.176331 
	C224.838257,235.703339 224.838257,230.634644 224.838257,225.146866 
	C230.311707,225.146866 235.381027,225.146866 240.868073,225.146866 
	C240.868073,219.671967 240.868073,214.603363 240.868073,209.000000 
	C246.207794,209.000000 251.136337,209.000000 256.532440,209.000000 
	C257.000000,224.926727 257.000000,240.853455 257.000000,257.000000 
	C241.313126,257.000000 225.625214,257.000000 209.468658,257.000000 
z"/>
<path fill="#000000" opacity="1.000000" stroke="none" 
	d="
M257.000000,48.531342 
	C251.916199,49.000000 246.832382,49.000000 240.983017,49.000000 
	C240.983017,43.935120 240.983017,38.930321 240.971252,33.000526 
	C240.959473,27.154312 240.959473,22.233091 240.959473,16.850143 
	C235.305176,16.850143 230.382690,16.850143 225.000000,16.850143 
	C225.000000,11.248831 225.000000,6.124415 225.000000,1.000000 
	C235.607986,1.000000 246.215988,1.000000 257.000000,1.000000 
	C257.000000,16.687122 257.000000,32.374905 257.000000,48.531342 
z"/>
<path fill="#B21429" opacity="1.000000" stroke="none" 
	d="
M224.533142,1.000000 
	C225.000000,6.124415 225.000000,11.248831 225.000000,16.850143 
	C230.382690,16.850143 235.305176,16.850143 240.959473,16.850143 
	C240.959473,22.233091 240.959473,27.154312 240.896881,32.538292 
	C230.518005,33.003170 220.201721,33.005287 209.413681,33.032730 
	C208.961273,22.684475 208.980637,12.310895 209.000000,1.468657 
	C214.022095,1.000000 219.044189,1.000000 224.533142,1.000000 
z"/>
<path fill="#E36956" opacity="1.000000" stroke="none" 
	d="
M145.000000,257.000000 
	C134.645767,257.000000 124.291542,257.000000 113.468658,256.533325 
	C112.982414,251.063141 112.964836,246.059616 112.971901,241.030334 
	C112.996552,241.004593 113.046394,240.953629 113.511711,240.970535 
	C124.332130,240.986069 134.687225,240.984695 145.025024,241.450943 
	C145.005157,246.945709 145.002579,251.972855 145.000000,257.000000 
z"/>
<path fill="#E36956" opacity="1.000000" stroke="none" 
	d="
M177.002274,241.164139 
	C177.001511,246.131912 177.000763,251.099670 177.000000,256.533722 
	C171.977905,257.000000 166.955811,257.000000 161.466858,256.533081 
	C160.986145,251.038589 160.972275,246.011032 161.427704,240.989670 
	C166.932098,241.051971 171.967178,241.108047 177.002274,241.164139 
z"/>
<path fill="#66FFE3" opacity="1.000000" stroke="none" 
	d="
M160.958405,240.983459 
	C160.972275,246.011032 160.986145,251.038589 161.000000,256.533081 
	C155.977905,257.000000 150.955811,257.000000 145.466858,257.000000 
	C145.002579,251.972855 145.005157,246.945709 144.994186,241.455048 
	C144.980652,240.991516 144.985260,241.053864 145.452744,241.031845 
	C150.951736,241.024506 155.983231,241.039185 161.017670,241.022614 
	C161.020599,240.991379 160.958389,240.983459 160.958405,240.983459 
z"/>
<path fill="#66FFE3" opacity="1.000000" stroke="none" 
	d="
M112.947250,241.056076 
	C112.964836,246.059616 112.982414,251.063141 113.000000,256.533325 
	C107.977905,257.000000 102.955818,257.000000 97.466858,256.532990 
	C97.014900,251.029083 97.029793,245.992203 97.044693,240.955307 
	C97.044693,240.955307 97.000000,241.000000 97.446938,241.004089 
	C102.911667,241.024155 107.929466,241.040115 112.947250,241.056076 
z"/>
<path fill="#E36956" opacity="1.000000" stroke="none" 
	d="
M96.574677,240.973572 
	C97.029793,245.992203 97.014900,251.029083 97.000000,256.532990 
	C91.977905,257.000000 86.955818,257.000000 81.466858,257.000000 
	C81.000000,251.876297 81.000000,246.752579 81.000000,240.991821 
	C86.261116,240.991821 91.182892,240.991821 96.574677,240.973572 
z"/>
<path fill="#F23851" opacity="1.000000" stroke="none" 
	d="
M80.836594,32.992210 
	C80.836594,27.859812 80.836594,22.727413 80.836594,17.024109 
	C102.236893,17.024109 123.157692,17.024109 144.541138,17.551453 
	C144.996521,23.068981 144.989288,28.059164 144.515533,33.030582 
	C139.156891,33.011818 134.264755,33.011818 129.036133,33.011818 
	C129.036133,38.829441 129.036133,43.931767 128.566345,49.021347 
	C123.194550,49.008598 118.292557,49.008598 113.159470,49.008598 
	C113.159470,54.817188 113.159470,59.921501 113.092560,65.486832 
	C113.072647,70.965225 113.119652,75.982597 113.096741,81.464050 
	C113.026833,92.179947 113.026833,102.431778 113.026833,112.833344 
	C118.745728,112.833344 123.872887,112.833344 129.464050,112.903320 
	C140.182129,112.973289 150.436218,112.973289 160.840500,112.973289 
	C160.840500,96.590302 160.840500,80.808022 160.900421,64.562027 
	C160.957169,59.071697 160.953995,54.045071 161.421295,49.012959 
	C165.538513,49.006020 169.194824,49.167706 172.829239,48.955227 
	C176.170715,48.759880 177.136078,50.187824 177.060730,53.337376 
	C176.974609,56.938519 176.013901,62.077858 177.909210,63.761433 
	C180.136063,65.739525 185.027435,64.972702 188.757507,64.926918 
	C192.008041,64.887016 193.102661,66.035759 193.052841,69.263565 
	C192.909607,78.543701 193.025803,87.827827 193.031570,97.074661 
	C193.023087,97.038933 193.094696,97.022652 192.620789,97.016251 
	C188.358109,97.008194 184.565979,97.103523 180.781708,96.972229 
	C178.063858,96.877914 176.869202,97.886612 176.974091,100.689476 
	C177.127975,104.802238 177.064575,108.923134 177.057037,113.503578 
	C176.991135,118.978409 176.961945,123.990227 176.932739,129.002045 
	C176.932739,129.002045 177.002472,129.002472 176.533936,128.994019 
	C165.735901,129.031067 155.406418,129.076538 144.604767,129.085037 
	C107.142769,129.024399 70.152924,129.000763 33.163082,128.977112 
	C33.163082,102.525093 33.163082,76.073067 33.163082,49.002373 
	C38.217735,49.002373 43.148392,49.002373 48.538582,49.000263 
	C48.998108,48.998154 48.980110,48.980110 48.987526,49.448414 
	C49.049786,54.953083 49.104630,59.989445 49.092556,65.486824 
	C49.072651,70.965218 49.119656,75.982597 49.096748,81.464050 
	C49.026836,92.179947 49.026836,102.431763 49.026836,112.833344 
	C54.745083,112.833344 59.872555,112.833344 65.464020,112.903320 
	C76.182114,112.973289 86.436211,112.973289 96.840500,112.973289 
	C96.840500,96.590302 96.840500,80.808006 96.900444,64.561356 
	C96.960388,59.194790 96.960388,54.292583 96.960388,49.034130 
	C91.179970,49.034130 86.071922,49.034130 80.977356,48.565121 
	C80.939415,43.061478 80.888000,38.026844 80.836594,32.992210 
z"/>
<path fill="#FF9166" opacity="1.000000" stroke="none" 
	d="
M33.097610,129.440735 
	C70.152924,129.000763 107.142769,129.024399 144.579254,129.542450 
	C145.025879,134.936569 145.025879,139.836258 145.025879,145.267639 
	C139.170334,145.267639 134.274567,145.267639 128.825882,145.267639 
	C128.825882,150.730896 128.825882,155.629669 128.825882,161.146362 
	C112.513031,161.146362 96.769142,161.146362 80.557426,161.096970 
	C69.772636,161.021194 59.455662,160.994827 49.091263,160.505188 
	C49.043835,155.127960 49.043835,150.213974 49.043835,145.002884 
	C43.124340,145.002884 38.145271,145.002884 33.166199,145.002884 
	C33.121513,139.970047 33.076824,134.937195 33.097610,129.440735 
z"/>
<path fill="#B21429" opacity="1.000000" stroke="none" 
	d="
M144.982056,33.049347 
	C144.989288,28.059164 144.996521,23.068981 145.005447,17.622496 
	C155.467087,17.166193 165.927048,17.166193 176.861603,17.166193 
	C176.861603,22.321302 176.861603,27.391626 176.861603,32.992596 
	C187.589905,32.992596 197.852234,32.992596 208.586319,32.967270 
	C209.045792,43.318859 209.033524,53.695770 209.025177,65.000275 
	C208.994659,76.283859 208.960220,86.639839 208.925781,96.995827 
	C208.925781,96.995827 208.996490,96.996498 208.530365,96.991776 
	C203.056168,97.028160 198.048111,97.069275 193.040054,97.110390 
	C193.025803,87.827827 192.909607,78.543701 193.052841,69.263565 
	C193.102661,66.035759 192.008041,64.887016 188.757507,64.926918 
	C185.027435,64.972702 180.136063,65.739525 177.909210,63.761433 
	C176.013901,62.077858 176.974609,56.938519 177.060730,53.337376 
	C177.136078,50.187824 176.170715,48.759880 172.829239,48.955227 
	C169.194824,49.167706 165.538513,49.006020 161.443939,49.008102 
	C160.996109,49.008732 160.987167,49.053135 160.990311,48.581696 
	C160.993988,44.324802 160.896271,40.535923 161.027985,36.755035 
	C161.123337,34.018490 160.067276,32.880852 157.289612,32.971634 
	C153.179306,33.105972 149.061493,33.010475 144.969986,33.007698 
	C144.993103,33.002556 144.982056,33.049347 144.982056,33.049347 
z"/>
<path fill="#FFFF11" opacity="1.000000" stroke="none" 
	d="
M33.096809,145.467407 
	C38.145271,145.002884 43.124340,145.002884 49.043835,145.002884 
	C49.043835,150.213974 49.043835,155.127960 49.044533,160.973465 
	C49.033577,172.266571 49.021927,182.628174 49.005142,192.994888 
	C49.000000,193.000015 48.989246,193.010681 48.989246,193.010681 
	C43.859978,193.010681 38.730709,193.010681 33.027412,193.010681 
	C33.027412,177.083344 33.027412,161.507629 33.096809,145.467407 
z"/>
<path fill="#FFFF11" opacity="1.000000" stroke="none" 
	d="
M96.836891,225.001862 
	C86.427513,225.001862 76.018127,225.001862 64.998253,225.001862 
	C64.998253,219.762085 64.998253,214.853226 64.999123,209.472198 
	C64.999992,209.000015 65.010277,208.989761 65.478210,208.992981 
	C76.304886,209.038651 86.663635,209.081070 97.014214,209.582642 
	C96.949669,215.028488 96.893280,220.015182 96.836891,225.001862 
z"/>
<path fill="#E36956" opacity="1.000000" stroke="none" 
	d="
M96.903732,225.465500 
	C96.893280,220.015182 96.949669,215.028488 97.478905,209.536865 
	C102.922333,209.031418 107.892906,209.030899 112.913147,209.494720 
	C112.990677,220.290588 113.018532,230.622116 113.046394,240.953629 
	C113.046394,240.953629 112.996552,241.004593 112.971909,241.030334 
	C107.929466,241.040115 102.911667,241.024155 97.424591,241.026428 
	C96.960396,236.006180 96.965485,230.967651 96.903732,225.465500 
z"/>
<path fill="#F23851" opacity="1.000000" stroke="none" 
	d="
M49.007050,49.007240 
	C49.015995,43.882923 49.015995,38.749512 49.015995,33.023773 
	C54.214577,33.023773 59.141010,33.023773 64.531837,33.549065 
	C65.009537,39.060944 65.022842,44.047531 64.566879,49.021366 
	C59.058445,48.999107 54.019276,48.989609 48.980110,48.980110 
	C48.980110,48.980110 48.998108,48.998154 49.007050,49.007240 
z"/>
<path fill="#FFE684" opacity="1.000000" stroke="none" 
	d="
M65.036148,49.034122 
	C65.022842,44.047531 65.009537,39.060944 64.994217,33.618881 
	C69.969986,33.107681 74.947769,33.051952 80.381065,32.994217 
	C80.888000,38.026844 80.939415,43.061478 80.994965,48.548157 
	C80.999107,49.000206 81.034027,48.965981 80.565033,48.978661 
	C75.052681,48.982883 70.009323,48.974430 64.983444,48.983089 
	C65.000908,49.000198 65.036140,49.034122 65.036148,49.034122 
z"/>
<path fill="#FFFF11" opacity="1.000000" stroke="none" 
	d="
M64.994659,209.005386 
	C59.868271,209.010757 54.747211,209.010757 48.998257,209.010757 
	C48.998257,203.774628 48.998257,198.859360 48.993752,193.477386 
	C48.989246,193.010681 49.000000,193.000015 49.471825,192.998108 
	C53.718517,192.998978 57.497124,193.105606 61.266991,192.969772 
	C63.997028,192.871414 65.124107,193.901596 65.031128,196.681686 
	C64.894066,200.780029 65.004974,204.886658 65.010277,208.989761 
	C65.010277,208.989761 64.999992,209.000015 64.994659,209.005386 
z"/>
<path fill="#FFFF11" opacity="1.000000" stroke="none" 
	d="
M113.511711,240.970535 
	C113.018532,230.622116 112.990677,220.290588 112.959061,209.028809 
	C112.970200,206.267715 112.996880,204.436874 112.998024,202.606033 
	C113.004005,193.011337 113.001762,193.011307 103.616928,192.999969 
	C97.011040,192.991989 97.010773,192.992020 97.000198,186.620132 
	C96.996880,184.622635 96.918549,182.621506 97.012863,180.628586 
	C97.128365,178.187958 96.305206,177.012451 93.624580,176.952835 
	C89.551163,176.862259 83.539810,177.855072 81.902824,175.695648 
	C79.779076,172.894119 81.137352,167.450287 81.006416,163.143585 
	C80.986191,162.478653 81.017677,161.812149 81.025246,161.146362 
	C96.769142,161.146362 112.513031,161.146362 128.825882,161.146362 
	C128.825882,155.629669 128.825882,150.730896 128.825882,145.267639 
	C134.274567,145.267639 139.170334,145.267639 145.025879,145.267639 
	C145.025879,139.836258 145.025879,134.936569 145.051392,129.579437 
	C155.406418,129.076538 165.735901,129.031067 176.533722,128.959167 
	C177.000504,132.922607 176.876007,136.917496 177.038528,140.900665 
	C177.156418,143.790054 176.320541,145.408417 173.146500,144.999390 
	C172.983047,144.978317 172.814285,144.994263 172.648148,144.998779 
	C161.000000,145.315170 160.999634,145.315216 161.000168,157.262558 
	C161.000397,162.582382 161.100403,167.904739 160.963150,173.220993 
	C160.892242,175.968002 161.826904,177.058884 164.674561,177.057907 
	C168.596069,177.056534 174.014420,176.053391 176.023819,178.142075 
	C178.087021,180.286667 176.812393,185.636047 177.015076,189.582062 
	C177.057358,190.405075 177.172150,191.224380 177.349396,193.012482 
	C192.856186,193.012482 208.391068,193.012482 224.383575,193.020264 
	C224.841202,198.147903 224.841202,203.267761 224.841202,208.903809 
	C219.630814,208.903809 214.572937,208.903809 209.188416,208.903809 
	C209.188416,214.339859 209.188416,219.270920 209.188416,224.719666 
	C203.821030,224.719666 198.764709,224.719666 193.195999,224.719666 
	C193.195999,230.271729 193.195999,235.322571 193.195999,241.026901 
	C187.770782,241.026901 182.850784,241.026901 177.466522,241.095520 
	C171.967178,241.108047 166.932098,241.051971 161.427704,240.989670 
	C160.958389,240.983459 161.020599,240.991379 161.012268,240.550415 
	C161.003952,229.855301 161.003952,219.601166 161.003952,209.340729 
	C155.290634,209.340729 150.381607,209.340729 144.985260,209.340729 
	C144.985260,220.134872 144.985260,230.594376 144.985260,241.053864 
	C144.985260,241.053864 144.980652,240.991516 145.011490,240.987427 
	C134.687225,240.984695 124.332130,240.986069 113.511711,240.970535 
z"/>
<path fill="#FFFF11" opacity="1.000000" stroke="none" 
	d="
M209.397736,96.996964 
	C208.960220,86.639839 208.994659,76.283859 209.097870,65.463928 
	C214.260406,64.999977 219.354156,64.999977 225.003296,64.999977 
	C225.003296,75.584251 225.003296,85.783722 225.010574,96.441772 
	C219.968460,96.932922 214.919083,96.965508 209.397736,96.996964 
z"/>
<path fill="#FFFF11" opacity="1.000000" stroke="none" 
	d="
M177.404755,129.001221 
	C176.961945,123.990227 176.991135,118.978409 177.514404,113.487213 
	C182.987320,112.986916 187.966187,112.965988 192.966553,112.966995 
	C192.988068,112.988937 193.030731,113.033173 193.030731,113.033173 
	C193.019653,116.983536 192.831741,120.943779 193.051819,124.881218 
	C193.237396,128.200958 191.885803,129.222778 188.737793,129.045334 
	C185.128067,128.841858 181.497986,128.999573 177.404755,129.001221 
z"/>
<path fill="#FFFF11" opacity="1.000000" stroke="none" 
	d="
M193.031570,97.074661 
	C198.048111,97.069275 203.056168,97.028160 208.530029,96.956421 
	C208.995880,101.043945 208.886810,105.166008 209.034256,109.278877 
	C209.132812,112.028488 208.124344,113.146126 205.325607,113.034126 
	C201.543198,112.882751 197.749786,113.005867 193.495911,113.022194 
	C193.030731,113.033173 192.988068,112.988937 192.989258,112.504379 
	C193.025192,107.020767 193.059952,102.021713 193.094696,97.022652 
	C193.094696,97.022652 193.023087,97.038933 193.031570,97.074661 
z"/>
<path fill="#E36956" opacity="1.000000" stroke="none" 
	d="
M145.452744,241.031845 
	C144.985260,230.594376 144.985260,220.134872 144.985260,209.340729 
	C150.381607,209.340729 155.290634,209.340729 161.003952,209.340729 
	C161.003952,219.601166 161.003952,229.855301 161.009338,240.581650 
	C155.983231,241.039185 150.951736,241.024506 145.452744,241.031845 
z"/>
<path fill="#FFFFFF" opacity="1.000000" stroke="none" 
	d="
M113.166656,80.999977 
	C113.119652,75.982597 113.072647,70.965225 113.548477,65.479782 
	C119.061058,64.960495 124.050804,64.909286 129.503876,64.917747 
	C134.964584,64.937653 139.961975,64.897896 145.426270,64.904877 
	C150.875610,64.976326 155.858047,65.001030 160.840500,65.025734 
	C160.840500,80.808022 160.840500,96.590302 160.840500,112.973289 
	C150.436218,112.973289 140.182129,112.973289 129.464050,112.445602 
	C129.000061,101.676224 129.000061,91.434540 129.000061,80.999977 
	C123.150764,80.999977 118.158707,80.999977 113.166656,80.999977 
z"/>
<path fill="#FFFFFF" opacity="1.000000" stroke="none" 
	d="
M96.840500,65.025726 
	C96.840500,80.808006 96.840500,96.590302 96.840500,112.973289 
	C86.436211,112.973289 76.182114,112.973289 65.464027,112.445602 
	C65.000031,101.676224 65.000031,91.434540 65.000031,80.999977 
	C59.150768,80.999977 54.158718,80.999977 49.166664,80.999977 
	C49.119656,75.982597 49.072651,70.965218 49.548477,65.479774 
	C55.061050,64.960503 60.050793,64.909294 65.503860,64.917755 
	C70.964569,64.937660 75.961952,64.897903 81.426231,64.904892 
	C86.875580,64.976334 91.858040,65.001030 96.840500,65.025726 
z"/>
<path fill="#4DA6FF" opacity="1.000000" stroke="none" 
	d="
M49.096748,81.464050 
	C54.158718,80.999977 59.150768,80.999977 65.000031,80.999977 
	C65.000031,91.434540 65.000031,101.676224 65.000031,112.375626 
	C59.872555,112.833344 54.745083,112.833344 49.026836,112.833344 
	C49.026836,102.431763 49.026836,92.179947 49.096748,81.464050 
z"/>
<path fill="#4DA6FF" opacity="1.000000" stroke="none" 
	d="
M113.096741,81.464050 
	C118.158707,80.999977 123.150764,80.999977 129.000061,80.999977 
	C129.000061,91.434540 129.000061,101.676224 129.000061,112.375626 
	C123.872887,112.833344 118.745728,112.833344 113.026833,112.833344 
	C113.026833,102.431778 113.026833,92.179947 113.096741,81.464050 
z"/>
<path fill="#FFE684" opacity="1.000000" stroke="none" 
	d="
M129.036133,49.034096 
	C129.036133,43.931767 129.036133,38.829441 129.036133,33.011818 
	C134.264755,33.011818 139.156891,33.011818 144.515533,33.030582 
	C144.982056,33.049347 144.993103,33.002556 144.990173,33.474018 
	C144.980164,38.974991 144.973053,44.004505 144.982971,49.017006 
	C145.000000,49.000000 145.034042,48.965981 144.565048,48.978657 
	C139.052689,48.982883 134.009323,48.974430 128.983429,48.983070 
	C129.000916,49.000168 129.036133,49.034096 129.036133,49.034096 
z"/>
<path fill="#FFE684" opacity="1.000000" stroke="none" 
	d="
M65.040535,64.858078 
	C60.050793,64.909294 55.061050,64.960503 49.615387,65.018761 
	C49.104630,59.989445 49.049786,54.953083 48.987526,49.448414 
	C54.019276,48.989609 59.058445,48.999107 64.566879,49.021366 
	C65.036140,49.034122 65.000908,49.000198 64.996124,49.451714 
	C65.007736,54.888176 65.024132,59.873127 65.040535,64.858078 
z"/>
<path fill="#FFE684" opacity="1.000000" stroke="none" 
	d="
M96.900444,64.561356 
	C91.858040,65.001030 86.875580,64.976334 81.440216,64.449028 
	C81.002876,58.952938 81.018456,53.959457 81.034027,48.965981 
	C81.034027,48.965981 80.999107,49.000206 80.981491,49.017166 
	C86.071922,49.034130 91.179970,49.034130 96.960388,49.034130 
	C96.960388,54.292583 96.960388,59.194790 96.900444,64.561356 
z"/>
<path fill="#FFE684" opacity="1.000000" stroke="none" 
	d="
M129.040558,64.858078 
	C124.050804,64.909286 119.061058,64.960495 113.615387,65.018768 
	C113.159470,59.921501 113.159470,54.817188 113.159470,49.008598 
	C118.292557,49.008598 123.194550,49.008598 128.566345,49.021347 
	C129.036133,49.034096 129.000916,49.000168 128.996124,49.451698 
	C129.007736,54.888176 129.024139,59.873127 129.040558,64.858078 
z"/>
<path fill="#FFE684" opacity="1.000000" stroke="none" 
	d="
M160.900421,64.562027 
	C155.858047,65.001030 150.875610,64.976326 145.440231,64.449020 
	C145.002884,58.952938 145.018463,53.959457 145.034042,48.965981 
	C145.034042,48.965981 145.000000,49.000000 145.451843,49.004333 
	C150.931519,49.023487 155.959351,49.038311 160.987167,49.053135 
	C160.987167,49.053135 160.996109,49.008732 160.973465,49.013588 
	C160.953995,54.045071 160.957169,59.071697 160.900421,64.562027 
z"/>
<path fill="#B21429" opacity="1.000000" stroke="none" 
	d="
M192.620789,97.016251 
	C193.059952,102.021713 193.025192,107.020767 192.967743,112.482437 
	C187.966187,112.965988 182.987320,112.986916 177.551117,113.024200 
	C177.064575,108.923134 177.127975,104.802238 176.974091,100.689476 
	C176.869202,97.886612 178.063858,96.877914 180.781708,96.972229 
	C184.565979,97.103523 188.358109,97.008194 192.620789,97.016251 
z"/>
<path fill="#FCFC74" opacity="1.000000" stroke="none" 
	d="
M80.557426,161.096970 
	C81.017677,161.812149 80.986191,162.478653 81.006416,163.143585 
	C81.137352,167.450287 79.779076,172.894119 81.902824,175.695648 
	C83.539810,177.855072 89.551163,176.862259 93.624580,176.952835 
	C96.305206,177.012451 97.128365,178.187958 97.012863,180.628586 
	C96.918549,182.621506 96.996880,184.622635 97.000198,186.620132 
	C97.010773,192.992020 97.011040,192.991989 103.616928,192.999969 
	C113.001762,193.011307 113.004005,193.011337 112.998024,202.606033 
	C112.996880,204.436874 112.970200,206.267715 112.909393,208.564468 
	C107.892906,209.030899 102.922333,209.031418 97.487068,209.077713 
	C86.663635,209.081070 76.304886,209.038651 65.478210,208.992981 
	C65.004974,204.886658 64.894066,200.780029 65.031128,196.681686 
	C65.124107,193.901596 63.997028,192.871414 61.266991,192.969772 
	C57.497124,193.105606 53.718517,192.998978 49.476967,192.992981 
	C49.021927,182.628174 49.033577,172.266571 49.091957,161.436707 
	C59.455662,160.994827 69.772636,161.021194 80.557426,161.096970 
z"/>
<path fill="#F23851" opacity="1.000000" stroke="none" 
	d="
M160.990311,48.581696 
	C155.959351,49.038311 150.931519,49.023487 145.434830,49.021339 
	C144.973053,44.004505 144.980164,38.974991 144.967072,33.479156 
	C149.061493,33.010475 153.179306,33.105972 157.289612,32.971634 
	C160.067276,32.880852 161.123337,34.018490 161.027985,36.755035 
	C160.896271,40.535923 160.993988,44.324802 160.990311,48.581696 
z"/>
<path fill="#F23851" opacity="1.000000" stroke="none" 
	d="
M80.565033,48.978661 
	C81.018456,53.959457 81.002876,58.952938 80.973328,64.402275 
	C75.961952,64.897903 70.964569,64.937660 65.503860,64.917755 
	C65.024132,59.873127 65.007736,54.888176 64.978653,49.434601 
	C70.009323,48.974430 75.052681,48.982883 80.565033,48.978661 
z"/>
<path fill="#F23851" opacity="1.000000" stroke="none" 
	d="
M144.565048,48.978657 
	C145.018463,53.959457 145.002884,58.952938 144.973328,64.402275 
	C139.961975,64.897896 134.964584,64.937653 129.503876,64.917747 
	C129.024139,59.873127 129.007736,54.888176 128.978638,49.434601 
	C134.009323,48.974430 139.052689,48.982883 144.565048,48.978657 
z"/>
</svg>